{
  "accessors": [
    {
      "bufferView": 2,
      "componentType": 5126,
      "count": 17855,
      "max": [
        2.3423728942871094,
        -0.29638400673866272,
        2.4479339122772217
      ],
      "min": [
        -2.5951321125030518,
        -9.9992847442626953,
        -2.3688280582427979
      ],
      "type": "VEC3"
    },
    {
      "bufferView": 2,
      "byteOffset": 214260,
      "componentType": 5126,
      "count": 17855,
      "max": [
        0.9999733567237854,
        0.9995608925819397,
        0.99983662366867065
      ],
      "min": [
        -0.99990946054458618,
        -0.99999922513961792,
        -0.99999761581420898
      ],
      "type": "VEC3"
    },
    {
      "bufferView": 3,
      "componentType": 5126,
      "count": 17855,
      "max": [
        0.99982905387878418,
        0.99997127056121826,
        0.9999852180480957,
        1
      ],
      "min": [
        -0.99997949600219727,
        -0.95895951986312866,
        -0.99999809265136719,
        -1
      ],
      "type": "VEC4"
    },
    {
      "bufferView": 1,
      "componentType": 5126,
      "count": 17855,
      "max": [
        0.99804699420928955,
        0.99484997987747192
      ],
      "min": [
        0.0019529999699443579,
        0.0019529999699443579
      ],
      "type": "VEC2"
    },
    {
      "bufferView": 0,
      "componentType": 5125,
      "count": 100872,
      "max": [
        17854
      ],
      "min": [
        0
      ],
      "type": "SCALAR"
    }
  ],
  "asset": {
    "extras": {
      "author": "lv3628800 (https://sketchfab.com/lv3628800)",
      "license": "CC-BY-4.0 (http://creativecommons.org/licenses/by/4.0/)",
      "source": "https://sketchfab.com/3d-models/confucius-statuebnuz-afa49e1210af4b2da8776605f997e49d",
      "title": "Confucius Statue(BNUZ)"
    },
    "generator": "Sketchfab-6.9.0",
    "version": "2.0"
  },
  "bufferViews": [
    {
      "buffer": 0,
      "byteLength": 403488,
      "byteOffset": 0,
      "name": "floatBufferViews",
      "target": 34963
    },
    {
      "buffer": 0,
      "byteLength": 142840,
      "byteOffset": 403488,
      "byteStride": 8,
      "name": "floatBufferViews",
      "target": 34962
    },
    {
      "buffer": 0,
      "byteLength": 428520,
      "byteOffset": 546328,
      "byteStride": 12,
      "name": "floatBufferViews",
      "target": 34962
    },
    {
      "buffer": 0,
      "byteLength": 285680,
      "byteOffset": 974848,
      "byteStride": 16,
      "name": "floatBufferViews",
      "target": 34962
    }
  ],
  "buffers": [
    {
      "byteLength": 1260528,
      "uri": "scene.bin"
    }
  ],
  "images": [
    {
      "uri": "textures/lowready_baseColor.png"
    },
    {
      "uri": "textures/lowready_metallicRoughness.png"
    },
    {
      "uri": "textures/lowready_normal.png"
    }
  ],
  "materials": [
    {
      "doubleSided": true,
      "name": "lowready",
      "normalTexture": {
        "index": 2,
        "scale": 1,
        "texCoord": 0
      },
      "pbrMetallicRoughness": {
        "baseColorFactor": [
          1,
          1,
          1,
          1
        ],
        "baseColorTexture": {
          "index": 0,
          "texCoord": 0
        },
        "metallicFactor": 1,
        "metallicRoughnessTexture": {
          "index": 1,
          "texCoord": 0
        },
        "roughnessFactor": 1
      }
    }
  ],
  "meshes": [
    {
      "primitives": [
        {
          "attributes": {
            "NORMAL": 1,
            "POSITION": 0,
            "TANGENT": 2,
            "TEXCOORD_0": 3
          },
          "indices": 4,
          "material": 0,
          "mode": 4
        }
      ]
    }
  ],
  "nodes": [
    {
      "children": [
        1
      ],
      "name": "RootNode (gltf orientation matrix)",
      "rotation": [
        -0.70710678118654746,
        -0,
        -0,
        0.70710678118654757
      ]
    },
    {
      "children": [
        2
      ],
      "matrix": [
        1,
        1.2325951644078309e-32,
        -1.6081226229577292e-16,
        0,
        -1.6081226229577292e-16,
        2.2204460492503131e-16,
        -1,
        0,
        1.2325951644078309e-32,
        1,
        2.2204460492503131e-16,
        0,
        -8.3266726846886741e-16,
        -5.1873750686645508,
        -5.1082863807678223,
        1
      ],
      "name": "RootNode (model correction matrix)"
    },
    {
      "children": [
        3
      ],
      "name": "lowready.obj.cleaner.materialmerger.gles"
    },
    {
      "mesh": 0,
      "name": ""
    }
  ],
  "samplers": [
    {
      "magFilter": 9729,
      "minFilter": 9987,
      "wrapS": 10497,
      "wrapT": 10497
    }
  ],
  "scene": 0,
  "scenes": [
    {
      "name": "OSG_Scene",
      "nodes": [
        0
      ]
    }
  ],
  "textures": [
    {
      "sampler": 0,
      "source": 0
    },
    {
      "sampler": 0,
      "source": 1
    },
    {
      "sampler": 0,
      "source": 2
    }
  ]
}

